<?xml version="1.0"?>
<svg xmlns="http://www.w3.org/2000/svg" xmlns:xlink="http://www.w3.org/1999/xlink" version="1.1" id="Capa_1" x="0px" y="0px" viewBox="0 0 379.794 379.794" style="enable-background:new 0 0 379.794 379.794;" xml:space="preserve" width="512px" height="512px" class=""><g><path d="M294.107,161.375H113.893v-45.371c0-41.908,34.096-76.004,76.004-76.004c37.278,0,68.801,26.629,74.953,63.316  c1.827,10.894,12.144,18.238,23.032,16.417c10.894-1.827,18.244-12.139,16.417-23.032C299.813,69.95,285.931,45.47,265.21,27.77  C244.247,9.862,217.5,0,189.897,0C125.932,0,73.893,52.039,73.893,116.004v47.236c-7.213,2.751-14.35,8.96-14.35,21.258v64.942  c0,71.877,58.477,130.354,130.354,130.354S320.25,321.317,320.25,249.44v-64.942C320.25,166.208,303.15,161.375,294.107,161.375z   M214.673,303.232c0.408,2.162-1.058,3.931-3.258,3.931H168.87c-2.2,0-3.666-1.769-3.258-3.931l6.814-36.114  c-5.201-4.743-8.465-11.574-8.465-19.167c0-14.324,11.612-25.936,25.936-25.936s25.936,11.612,25.936,25.936  c0,7.387-3.093,14.047-8.049,18.771L214.673,303.232z" data-original="#000000" class="active-path" data-old_color="#000000" fill="#FFFFFF"/><script xmlns="" class="active-path"/></g> </svg>
