<?xml version="1.0"?>
<svg xmlns="http://www.w3.org/2000/svg" xmlns:xlink="http://www.w3.org/1999/xlink" version="1.1" id="Layer_1" x="0px" y="0px" viewBox="0 0 511.994 511.994" style="enable-background:new 0 0 511.994 511.994;" xml:space="preserve" width="512px" height="512px" class=""><g><g>
	<g>
		<path d="M350.608,46.275c-14.422-14.633-32.155-25.992-52.701-33.742c-22.031-8.312-47.5-12.531-75.687-12.531    c-6.312,0-12.859,0.219-19.468,0.633c-32.125,2.047-61.89,9.188-88.452,21.242C89.114,33.307,67.255,48.9,49.349,68.227    c-34.75,37.491-52.14,86.209-48.984,137.177c3.578,57.664,19.812,102.623,48.234,133.607    c13.843,15.078,30.483,26.609,49.452,34.266c18.546,7.484,39.343,11.281,61.842,11.281c60.875,0.001,78.702-39.249,91.718-67.906    c6.625-14.592,12.359-27.217,21.531-31.904c6.875-3.531,17.188-4.906,28.109-6.375c19.687-2.625,41.998-5.625,60.404-21.634    c20.797-18.101,31.219-48.858,31.875-94.037C394.186,116.367,378.952,75.016,350.608,46.275z M372.186,162.39    c-0.547,38.773-8.578,64.366-24.547,78.257c-13.562,11.812-31.687,14.241-49.217,16.594c-12.797,1.711-24.875,3.328-35,8.516    c-15.812,8.086-23.296,24.586-31.234,42.068c-6.218,13.688-12.656,27.844-23.343,38.297    c-11.952,11.671-27.499,17.093-48.952,17.093c-82.78,0-131.873-56.5-138.231-159.131c-2.797-45.085,12.593-88.186,43.327-121.356    c15.968-17.234,35.531-31.172,58.124-41.421c24.203-10.984,51.452-17.5,80.998-19.375c6.156-0.391,12.25-0.594,18.109-0.594    c49.015,0,87.092,13.43,113.2,39.913C359.717,85.899,372.779,121.813,372.186,162.39z" data-original="#000000" class="active-path" data-old_color="#000000" fill="#FFFFFF"/>
	</g>
</g><g>
	<g>
		<path d="M502.247,208.209c-27.078,0-108.982,4.406-108.982,59.945c0,3.891,0.469,7.672,1.328,11.297L206.564,467.463    c-10.187,10.188-10.187,26.719,0,36.906c5.094,5.076,11.766,7.623,18.438,7.623c6.687,0,13.359-2.547,18.453-7.639    l188.309-188.295c3.39,0.734,6.921,1.141,10.546,1.141c27.078,0,49.047-21.951,49.047-49.045    C491.356,241.068,529.34,208.209,502.247,208.209z M228.361,489.275c-1.141,1.156-2.453,1.391-3.359,1.391    c-0.891,0-2.203-0.234-3.359-1.391c-1.844-1.844-1.844-4.875,0-6.719l178.575-178.574l4.422-4.422    c2.031,2.438,4.312,4.672,6.765,6.67L228.361,489.275z M470.013,268.154c0,15.281-12.422,27.719-27.703,27.719    c-15.28,0-27.718-12.438-27.718-27.719c0-7.258,2.25-12.923,7.094-17.828c4.984-5.062,12.64-9.352,22.733-12.758    c12.094-4.078,25.453-6.125,37-7.133C475.653,241.467,470.013,254.326,470.013,268.154z" data-original="#000000" class="active-path" data-old_color="#000000" fill="#FFFFFF"/>
	</g>
</g><g>
	<g>
		<path d="M298.673,149.336c-23.531,0-42.672,19.14-42.672,42.663c0,23.53,19.141,42.671,42.672,42.671    c23.515,0,42.654-19.141,42.654-42.671C341.327,168.476,322.187,149.336,298.673,149.336z M298.673,213.334    c-11.766,0-21.344-9.57-21.344-21.335c0-11.758,9.578-21.328,21.344-21.328c11.749,0,21.327,9.57,21.327,21.328    C320,203.764,310.422,213.334,298.673,213.334z" data-original="#000000" class="active-path" data-old_color="#000000" fill="#FFFFFF"/>
	</g>
</g><g>
	<g>
		<path d="M213.33,42.674c-17.641,0-32,14.351-32,31.999c0,17.641,14.359,31.999,32,31.999s32-14.359,32-31.999    C245.33,57.025,230.971,42.674,213.33,42.674z M213.33,85.337c-5.875,0-10.656-4.781-10.656-10.664    c0-5.883,4.781-10.664,10.656-10.664c5.891,0,10.672,4.781,10.672,10.664C224.002,80.556,219.221,85.337,213.33,85.337z" data-original="#000000" class="active-path" data-old_color="#000000" fill="#FFFFFF"/>
	</g>
</g><g>
	<g>
		<path d="M128.003,74.673c-17.64,0-31.999,14.352-31.999,31.999c0,17.641,14.359,32,31.999,32c17.641,0,32-14.359,32-32    C160.003,89.024,145.644,74.673,128.003,74.673z M128.003,117.336c-5.89,0-10.671-4.781-10.671-10.664    c0-5.882,4.781-10.671,10.671-10.671c5.875,0,10.672,4.789,10.672,10.671C138.675,112.555,133.878,117.336,128.003,117.336z" data-original="#000000" class="active-path" data-old_color="#000000" fill="#FFFFFF"/>
	</g>
</g><g>
	<g>
		<path d="M85.332,149.336c-17.641,0-32,14.358-32,31.999c0,17.648,14.359,31.999,32,31.999s32-14.351,32-31.999    C117.332,163.694,102.973,149.336,85.332,149.336z M85.333,191.999c-5.876,0-10.656-4.781-10.656-10.664    s4.781-10.664,10.656-10.664c5.891,0,10.672,4.781,10.672,10.664S91.224,191.999,85.333,191.999z" data-original="#000000" class="active-path" data-old_color="#000000" fill="#FFFFFF"/>
	</g>
</g><g>
	<g>
		<path d="M96.004,234.67c-17.641,0-32,14.352-32,32c0,17.641,14.359,32,32,32c17.64,0,31.999-14.359,31.999-32    C128.003,249.021,113.644,234.67,96.004,234.67z M96.004,277.342c-5.891,0-10.672-4.781-10.672-10.672    c0-5.883,4.781-10.673,10.672-10.673c5.875,0,10.671,4.79,10.671,10.673C106.676,272.56,101.879,277.342,96.004,277.342z" data-original="#000000" class="active-path" data-old_color="#000000" fill="#FFFFFF"/>
	</g>
</g><script xmlns="" class="active-path" style=""/></g> </svg>
